<?xml version="1.0" encoding="utf-8"?>
<!-- Generator: Adobe Illustrator 24.3.0, SVG Export Plug-In . SVG Version: 6.00 Build 0)  -->
<svg version="1.0" id="katman_1" xmlns="http://www.w3.org/2000/svg" xmlns:xlink="http://www.w3.org/1999/xlink" x="0px" y="0px"
	 viewBox="0 0 463.42 500" style="enable-background:new 0 0 463.42 500;" xml:space="preserve">
<style type="text/css">
	.st0{clip-path:url(#SVGID_2_);}
	.st1{fill-rule:evenodd;clip-rule:evenodd;fill:#FFFFFF;filter:url(#Adobe_OpacityMaskFilter);}
	.st2{mask:url(#mask0_244_47885_1_);}
	.st3{fill:#45EF8A;}
	.st4{fill-rule:evenodd;clip-rule:evenodd;fill:#FFFFFF;filter:url(#Adobe_OpacityMaskFilter_1_);}
	.st5{mask:url(#mask1_244_47885_1_);}
	.st6{fill:#263238;fill-opacity:0.2;}
	.st7{fill-rule:evenodd;clip-rule:evenodd;fill:#FFFFFF;filter:url(#Adobe_OpacityMaskFilter_2_);}
	.st8{mask:url(#mask2_244_47885_1_);}
	.st9{fill:#3DDC84;}
	.st10{fill-rule:evenodd;clip-rule:evenodd;fill:#FFFFFF;filter:url(#Adobe_OpacityMaskFilter_3_);}
	.st11{mask:url(#mask3_244_47885_1_);}
	.st12{fill-rule:evenodd;clip-rule:evenodd;fill:#FFFFFF;filter:url(#Adobe_OpacityMaskFilter_4_);}
	.st13{mask:url(#mask4_244_47885_1_);}
	.st14{fill:#263238;fill-opacity:0.05;}
	.st15{fill-rule:evenodd;clip-rule:evenodd;fill:#FFFFFF;filter:url(#Adobe_OpacityMaskFilter_5_);}
	.st16{mask:url(#mask5_244_47885_1_);}
	.st17{fill:#FFFFFF;fill-opacity:0.05;}
	.st18{fill-rule:evenodd;clip-rule:evenodd;fill:#FFFFFF;filter:url(#Adobe_OpacityMaskFilter_6_);}
	.st19{mask:url(#mask6_244_47885_1_);}
	.st20{fill:url(#SVGID_3_);}
	.st21{fill-rule:evenodd;clip-rule:evenodd;fill:#FFFFFF;filter:url(#Adobe_OpacityMaskFilter_7_);}
	.st22{mask:url(#mask7_244_47885_1_);}
	.st23{fill:#FFFFFF;fill-opacity:0.2;}
	.st24{fill-rule:evenodd;clip-rule:evenodd;fill:#FFFFFF;filter:url(#Adobe_OpacityMaskFilter_8_);}
	.st25{mask:url(#mask8_244_47885_1_);}
	.st26{fill:#D7EFFE;}
	.st27{opacity:0.3;fill:#BDBDBD;enable-background:new    ;}
	.st28{fill:#212121;fill-opacity:0.1;}
	.st29{fill-rule:evenodd;clip-rule:evenodd;fill:#FFFFFF;filter:url(#Adobe_OpacityMaskFilter_9_);}
	.st30{mask:url(#mask9_244_47885_1_);}
	.st31{fill:#FFFFFF;fill-opacity:0.4;}
	.st32{fill-rule:evenodd;clip-rule:evenodd;fill:#FFFFFF;filter:url(#Adobe_OpacityMaskFilter_10_);}
	.st33{mask:url(#mask10_244_47885_1_);}
	.st34{fill:#073042;}
	.st35{fill-rule:evenodd;clip-rule:evenodd;fill:#FFFFFF;filter:url(#Adobe_OpacityMaskFilter_11_);}
	.st36{mask:url(#mask11_244_47885_1_);}
	.st37{fill:#FFFFFF;fill-opacity:0.1;}
	.st38{fill-rule:evenodd;clip-rule:evenodd;fill:#FFFFFF;filter:url(#Adobe_OpacityMaskFilter_12_);}
	.st39{mask:url(#mask12_244_47885_1_);}
	.st40{fill:url(#SVGID_4_);}
</style>
<g>
	<defs>
		<rect id="SVGID_1_" width="463.42" height="500"/>
	</defs>
	<clipPath id="SVGID_2_">
		<use xlink:href="#SVGID_1_"  style="overflow:visible;"/>
	</clipPath>
	<g class="st0">
		<defs>
			<filter id="Adobe_OpacityMaskFilter" filterUnits="userSpaceOnUse" x="0" y="0" width="463.42" height="463.42">
				<feColorMatrix  type="matrix" values="1 0 0 0 0  0 1 0 0 0  0 0 1 0 0  0 0 0 1 0"/>
			</filter>
		</defs>
		<mask maskUnits="userSpaceOnUse" x="0" y="0" width="463.42" height="463.42" id="mask0_244_47885_1_">
			<path class="st1" d="M463.42,231.71c0.02-38.86-9.74-77.1-28.38-111.21c-18.63-34.1-45.55-62.97-78.26-83.95
				C324.07,15.58,286.6,3.16,247.83,0.46s-77.59,4.38-112.9,20.61S68.96,62.16,45.77,93.34c-23.19,31.18-38.16,67.7-43.54,106.19
				c-5.38,38.49-0.99,77.71,12.76,114.06s36.42,68.65,65.93,93.94l-27.81,48.14v38.23c0,1.62,0.65,3.16,1.79,4.31
				c1.14,1.14,2.69,1.79,4.31,1.79c1.08,0,2.14-0.29,3.08-0.82l33.08-19.09l25.82-44.7c33.94,18.39,71.93,28.02,110.53,28.02
				c38.6,0,76.59-9.63,110.53-28.02l25.82,44.7l33.08,19.09c0.94,0.54,2,0.82,3.08,0.82c1.61-0.01,3.16-0.65,4.31-1.79
				c1.14-1.14,1.79-2.69,1.79-4.31v-38.23l-27.8-48.14c25.39-21.72,45.77-48.68,59.74-79.04
				C456.23,298.14,463.44,265.12,463.42,231.71z"/>
		</mask>
		<g class="st2">
			<path class="st3" d="M231.71,463.42c127.97,0,231.71-103.74,231.71-231.71C463.42,103.74,359.68,0,231.71,0
				C103.74,0,0,103.74,0,231.71C0,359.68,103.74,463.42,231.71,463.42z"/>
		</g>
		<defs>
			<filter id="Adobe_OpacityMaskFilter_1_" filterUnits="userSpaceOnUse" x="0" y="231.71" width="463.42" height="231.71">
				<feColorMatrix  type="matrix" values="1 0 0 0 0  0 1 0 0 0  0 0 1 0 0  0 0 0 1 0"/>
			</filter>
		</defs>
		<mask maskUnits="userSpaceOnUse" x="0" y="231.71" width="463.42" height="231.71" id="mask1_244_47885_1_">
			<path class="st4" d="M463.42,231.71c0.02-38.86-9.74-77.1-28.38-111.21c-18.63-34.1-45.55-62.97-78.26-83.95
				C324.07,15.58,286.6,3.16,247.83,0.46s-77.59,4.38-112.9,20.61S68.96,62.16,45.77,93.34c-23.19,31.18-38.16,67.7-43.54,106.19
				c-5.38,38.49-0.99,77.71,12.76,114.06s36.42,68.65,65.93,93.94l-27.81,48.14v38.23c0,1.62,0.65,3.16,1.79,4.31
				c1.14,1.14,2.69,1.79,4.31,1.79c1.08,0,2.14-0.29,3.08-0.82l33.08-19.09l25.82-44.7c33.94,18.39,71.93,28.02,110.53,28.02
				c38.6,0,76.59-9.63,110.53-28.02l25.82,44.7l33.08,19.09c0.94,0.54,2,0.82,3.08,0.82c1.61-0.01,3.16-0.65,4.31-1.79
				c1.14-1.14,1.79-2.69,1.79-4.31v-38.23l-27.8-48.14c25.39-21.72,45.77-48.68,59.74-79.04
				C456.23,298.14,463.44,265.12,463.42,231.71z"/>
		</mask>
		<g class="st5">
			<path class="st6" d="M231.71,460.37c60.92,0,119.38-24,162.73-66.8c43.35-42.8,68.1-100.95,68.88-161.86h0.09
				c0,61.45-24.41,120.39-67.87,163.84C352.1,439,293.16,463.42,231.71,463.42c-61.45,0-120.39-24.41-163.84-67.87
				C24.41,352.1,0,293.16,0,231.71h0.09c0.78,60.91,25.53,119.06,68.88,161.86C112.32,436.37,170.79,460.36,231.71,460.37z"/>
		</g>
		<defs>
			<filter id="Adobe_OpacityMaskFilter_2_" filterUnits="userSpaceOnUse" x="0" y="0" width="463.42" height="231.71">
				<feColorMatrix  type="matrix" values="1 0 0 0 0  0 1 0 0 0  0 0 1 0 0  0 0 0 1 0"/>
			</filter>
		</defs>
		<mask maskUnits="userSpaceOnUse" x="0" y="0" width="463.42" height="231.71" id="mask2_244_47885_1_">
			<path class="st7" d="M463.42,231.71c0.02-38.86-9.74-77.1-28.38-111.21c-18.63-34.1-45.55-62.97-78.26-83.95
				C324.07,15.58,286.6,3.16,247.83,0.46s-77.59,4.38-112.9,20.61S68.96,62.16,45.77,93.34c-23.19,31.18-38.16,67.7-43.54,106.19
				c-5.38,38.49-0.99,77.71,12.76,114.06s36.42,68.65,65.93,93.94l-27.81,48.14v38.23c0,1.62,0.65,3.16,1.79,4.31
				c1.14,1.14,2.69,1.79,4.31,1.79c1.08,0,2.14-0.29,3.08-0.82l33.08-19.09l25.82-44.7c33.94,18.39,71.93,28.02,110.53,28.02
				c38.6,0,76.59-9.63,110.53-28.02l25.82,44.7l33.08,19.09c0.94,0.54,2,0.82,3.08,0.82c1.61-0.01,3.16-0.65,4.31-1.79
				c1.14-1.14,1.79-2.69,1.79-4.31v-38.23l-27.8-48.14c25.39-21.72,45.77-48.68,59.74-79.04
				C456.23,298.14,463.44,265.12,463.42,231.71z"/>
		</mask>
		<g class="st8">
			<path class="st9" d="M231.71,0C170.26,0,111.32,24.42,67.87,67.87C24.42,111.32,0,170.26,0,231.71h463.42
				c0-61.45-24.42-120.39-67.87-163.84C352.09,24.42,293.16,0,231.71,0z"/>
		</g>
		<defs>
			<filter id="Adobe_OpacityMaskFilter_3_" filterUnits="userSpaceOnUse" x="201.22" y="164.63" width="60.98" height="60.98">
				<feColorMatrix  type="matrix" values="1 0 0 0 0  0 1 0 0 0  0 0 1 0 0  0 0 0 1 0"/>
			</filter>
		</defs>
		<mask maskUnits="userSpaceOnUse" x="201.22" y="164.63" width="60.98" height="60.98" id="mask3_244_47885_1_">
			<path class="st10" d="M463.42,231.71c0.02-38.86-9.74-77.1-28.38-111.21c-18.63-34.1-45.55-62.97-78.26-83.95
				C324.07,15.58,286.6,3.16,247.83,0.46s-77.59,4.38-112.9,20.61S68.96,62.16,45.77,93.34c-23.19,31.18-38.16,67.7-43.54,106.19
				c-5.38,38.49-0.99,77.71,12.76,114.06s36.42,68.65,65.93,93.94l-27.81,48.14v38.23c0,1.62,0.65,3.16,1.79,4.31
				c1.14,1.14,2.69,1.79,4.31,1.79c1.08,0,2.14-0.29,3.08-0.82l33.08-19.09l25.82-44.7c33.94,18.39,71.93,28.02,110.53,28.02
				c38.6,0,76.59-9.63,110.53-28.02l25.82,44.7l33.08,19.09c0.94,0.54,2,0.82,3.08,0.82c1.61-0.01,3.16-0.65,4.31-1.79
				c1.14-1.14,1.79-2.69,1.79-4.31v-38.23l-27.8-48.14c25.39-21.72,45.77-48.68,59.74-79.04
				C456.23,298.14,463.44,265.12,463.42,231.71z"/>
		</mask>
		<g class="st11">
			<path class="st9" d="M231.71,225.61c16.84,0,30.49-13.65,30.49-30.49s-13.65-30.49-30.49-30.49c-16.84,0-30.49,13.65-30.49,30.49
				S214.87,225.61,231.71,225.61z"/>
		</g>
		<defs>
			<filter id="Adobe_OpacityMaskFilter_4_" filterUnits="userSpaceOnUse" x="0" y="228.66" width="463.42" height="3.05">
				<feColorMatrix  type="matrix" values="1 0 0 0 0  0 1 0 0 0  0 0 1 0 0  0 0 0 1 0"/>
			</filter>
		</defs>
		<mask maskUnits="userSpaceOnUse" x="0" y="228.66" width="463.42" height="3.05" id="mask4_244_47885_1_">
			<path class="st12" d="M463.42,231.71c0.02-38.86-9.74-77.1-28.38-111.21c-18.63-34.1-45.55-62.97-78.26-83.95
				C324.07,15.58,286.6,3.16,247.83,0.46s-77.59,4.38-112.9,20.61S68.96,62.16,45.77,93.34c-23.19,31.18-38.16,67.7-43.54,106.19
				c-5.38,38.49-0.99,77.71,12.76,114.06s36.42,68.65,65.93,93.94l-27.81,48.14v38.23c0,1.62,0.65,3.16,1.79,4.31
				c1.14,1.14,2.69,1.79,4.31,1.79c1.08,0,2.14-0.29,3.08-0.82l33.08-19.09l25.82-44.7c33.94,18.39,71.93,28.02,110.53,28.02
				c38.6,0,76.59-9.63,110.53-28.02l25.82,44.7l33.08,19.09c0.94,0.54,2,0.82,3.08,0.82c1.61-0.01,3.16-0.65,4.31-1.79
				c1.14-1.14,1.79-2.69,1.79-4.31v-38.23l-27.8-48.14c25.39-21.72,45.77-48.68,59.74-79.04
				C456.23,298.14,463.44,265.12,463.42,231.71z"/>
		</mask>
		<g class="st13">
			<path class="st14" d="M463.42,231.71H0v-3.05h463.42V231.71z"/>
		</g>
		<defs>
			<filter id="Adobe_OpacityMaskFilter_5_" filterUnits="userSpaceOnUse" x="0" y="231.71" width="463.42" height="3.05">
				<feColorMatrix  type="matrix" values="1 0 0 0 0  0 1 0 0 0  0 0 1 0 0  0 0 0 1 0"/>
			</filter>
		</defs>
		<mask maskUnits="userSpaceOnUse" x="0" y="231.71" width="463.42" height="3.05" id="mask5_244_47885_1_">
			<path class="st15" d="M463.42,231.71c0.02-38.86-9.74-77.1-28.38-111.21c-18.63-34.1-45.55-62.97-78.26-83.95
				C324.07,15.58,286.6,3.16,247.83,0.46s-77.59,4.38-112.9,20.61S68.96,62.16,45.77,93.34c-23.19,31.18-38.16,67.7-43.54,106.19
				c-5.38,38.49-0.99,77.71,12.76,114.06s36.42,68.65,65.93,93.94l-27.81,48.14v38.23c0,1.62,0.65,3.16,1.79,4.31
				c1.14,1.14,2.69,1.79,4.31,1.79c1.08,0,2.14-0.29,3.08-0.82l33.08-19.09l25.82-44.7c33.94,18.39,71.93,28.02,110.53,28.02
				c38.6,0,76.59-9.63,110.53-28.02l25.82,44.7l33.08,19.09c0.94,0.54,2,0.82,3.08,0.82c1.61-0.01,3.16-0.65,4.31-1.79
				c1.14-1.14,1.79-2.69,1.79-4.31v-38.23l-27.8-48.14c25.39-21.72,45.77-48.68,59.74-79.04
				C456.23,298.14,463.44,265.12,463.42,231.71z"/>
		</mask>
		<g class="st16">
			<path class="st17" d="M463.42,234.76H0v-3.05h463.42V234.76z"/>
		</g>
		<defs>
			<filter id="Adobe_OpacityMaskFilter_6_" filterUnits="userSpaceOnUse" x="59.21" y="85.37" width="404.21" height="414.63">
				<feColorMatrix  type="matrix" values="1 0 0 0 0  0 1 0 0 0  0 0 1 0 0  0 0 0 1 0"/>
			</filter>
		</defs>
		<mask maskUnits="userSpaceOnUse" x="59.21" y="85.37" width="404.21" height="414.63" id="mask6_244_47885_1_">
			<path class="st18" d="M463.42,231.71c0.02-38.86-9.74-77.1-28.38-111.21c-18.63-34.1-45.55-62.97-78.26-83.95
				C324.07,15.58,286.6,3.16,247.83,0.46s-77.59,4.38-112.9,20.61S68.96,62.16,45.77,93.34c-23.19,31.18-38.16,67.7-43.54,106.19
				c-5.38,38.49-0.99,77.71,12.76,114.06s36.42,68.65,65.93,93.94l-27.81,48.14v38.23c0,1.62,0.65,3.16,1.79,4.31
				c1.14,1.14,2.69,1.79,4.31,1.79c1.08,0,2.14-0.29,3.08-0.82l33.08-19.09l25.82-44.7c33.94,18.39,71.93,28.02,110.53,28.02
				c38.6,0,76.59-9.63,110.53-28.02l25.82,44.7l33.08,19.09c0.94,0.54,2,0.82,3.08,0.82c1.61-0.01,3.16-0.65,4.31-1.79
				c1.14-1.14,1.79-2.69,1.79-4.31v-38.23l-27.8-48.14c25.39-21.72,45.77-48.68,59.74-79.04
				C456.23,298.14,463.44,265.12,463.42,231.71z"/>
		</mask>
		<g class="st19">
			
				<linearGradient id="SVGID_3_" gradientUnits="userSpaceOnUse" x1="224.5225" y1="25.6153" x2="443.2505" y2="-96.8477" gradientTransform="matrix(1 0 0 -1 -47.6378 329.0649)">
				<stop  offset="0" style="stop-color:#263238;stop-opacity:0.2"/>
				<stop  offset="1" style="stop-color:#263238;stop-opacity:0.02"/>
			</linearGradient>
			<path class="st20" d="M182.41,231.71L59.21,500h404.21V292.68L256.1,85.37l-48.78,36.59L182.41,231.71z"/>
		</g>
		<defs>
			<filter id="Adobe_OpacityMaskFilter_7_" filterUnits="userSpaceOnUse" x="0" y="0" width="463.42" height="231.71">
				<feColorMatrix  type="matrix" values="1 0 0 0 0  0 1 0 0 0  0 0 1 0 0  0 0 0 1 0"/>
			</filter>
		</defs>
		<mask maskUnits="userSpaceOnUse" x="0" y="0" width="463.42" height="231.71" id="mask7_244_47885_1_">
			<path class="st21" d="M463.42,231.71c0.02-38.86-9.74-77.1-28.38-111.21c-18.63-34.1-45.55-62.97-78.26-83.95
				C324.07,15.58,286.6,3.16,247.83,0.46s-77.59,4.38-112.9,20.61S68.96,62.16,45.77,93.34c-23.19,31.18-38.16,67.7-43.54,106.19
				c-5.38,38.49-0.99,77.71,12.76,114.06s36.42,68.65,65.93,93.94l-27.81,48.14v38.23c0,1.62,0.65,3.16,1.79,4.31
				c1.14,1.14,2.69,1.79,4.31,1.79c1.08,0,2.14-0.29,3.08-0.82l33.08-19.09l25.82-44.7c33.94,18.39,71.93,28.02,110.53,28.02
				c38.6,0,76.59-9.63,110.53-28.02l25.82,44.7l33.08,19.09c0.94,0.54,2,0.82,3.08,0.82c1.61-0.01,3.16-0.65,4.31-1.79
				c1.14-1.14,1.79-2.69,1.79-4.31v-38.23l-27.8-48.14c25.39-21.72,45.77-48.68,59.74-79.04
				C456.23,298.14,463.44,265.12,463.42,231.71z"/>
		</mask>
		<g class="st22">
			<path class="st23" d="M231.71,3.05c60.92,0,119.38,24,162.73,66.8c43.35,42.8,68.1,100.95,68.88,161.86h0.09
				c0-61.45-24.41-120.39-67.87-163.84C352.1,24.41,293.16,0,231.71,0C170.26,0,111.32,24.41,67.87,67.87
				C24.41,111.32,0,170.26,0,231.71h0.09c0.78-60.91,25.53-119.06,68.88-161.86C112.32,27.05,170.79,3.05,231.71,3.05z"/>
		</g>
		<defs>
			<filter id="Adobe_OpacityMaskFilter_8_" filterUnits="userSpaceOnUse" x="224.66" y="231.71" width="185.67" height="268.29">
				<feColorMatrix  type="matrix" values="1 0 0 0 0  0 1 0 0 0  0 0 1 0 0  0 0 0 1 0"/>
			</filter>
		</defs>
		<mask maskUnits="userSpaceOnUse" x="224.66" y="231.71" width="185.67" height="268.29" id="mask8_244_47885_1_">
			<path class="st24" d="M463.42,231.71c0.02-38.86-9.74-77.1-28.38-111.21c-18.63-34.1-45.55-62.97-78.26-83.95
				C324.07,15.58,286.6,3.16,247.83,0.46s-77.59,4.38-112.9,20.61S68.96,62.16,45.77,93.34c-23.19,31.18-38.16,67.7-43.54,106.19
				c-5.38,38.49-0.99,77.71,12.76,114.06s36.42,68.65,65.93,93.94l-27.81,48.14v38.23c0,1.62,0.65,3.16,1.79,4.31
				c1.14,1.14,2.69,1.79,4.31,1.79c1.08,0,2.14-0.29,3.08-0.82l33.08-19.09l25.82-44.7c33.94,18.39,71.93,28.02,110.53,28.02
				c38.6,0,76.59-9.63,110.53-28.02l25.82,44.7l33.08,19.09c0.94,0.54,2,0.82,3.08,0.82c1.61-0.01,3.16-0.65,4.31-1.79
				c1.14-1.14,1.79-2.69,1.79-4.31v-38.23l-27.8-48.14c25.39-21.72,45.77-48.68,59.74-79.04
				C456.23,298.14,463.44,265.12,463.42,231.71z"/>
		</mask>
		<g class="st25">
			<path class="st26" d="M281.01,231.71h-56.34l143.42,248.38l33.08,19.09c0.94,0.54,2,0.82,3.08,0.82
				c1.62-0.01,3.16-0.65,4.31-1.79c1.14-1.14,1.79-2.69,1.79-4.31v-38.23L281.01,231.71z"/>
			<path class="st27" d="M281.01,231.71h-56.34l143.42,248.38l33.08,19.09c0.94,0.54,2,0.82,3.08,0.82
				c1.62-0.01,3.16-0.65,4.31-1.79c1.14-1.14,1.79-2.69,1.79-4.31v-38.23L281.01,231.71z"/>
			<path class="st23" d="M410.3,455.67L281,231.71h-1.77L410.3,458.72V455.67z"/>
			<path class="st28" d="M404.21,496.95c-1.08,0-2.14-0.29-3.08-0.82l-33.08-19.08L226.43,231.71h-1.77l143.42,248.38l33.08,19.09
				c0.94,0.54,2,0.82,3.08,0.82c1.62-0.01,3.16-0.65,4.31-1.79c1.14-1.14,1.79-2.69,1.79-4.31v-3.05c-0.02,1.62-0.67,3.16-1.82,4.3
				C407.37,496.3,405.82,496.94,404.21,496.95z"/>
		</g>
		<defs>
			<filter id="Adobe_OpacityMaskFilter_9_" filterUnits="userSpaceOnUse" x="53.08" y="231.71" width="349.36" height="268.3">
				<feColorMatrix  type="matrix" values="1 0 0 0 0  0 1 0 0 0  0 0 1 0 0  0 0 0 1 0"/>
			</filter>
		</defs>
		<mask maskUnits="userSpaceOnUse" x="53.08" y="231.71" width="349.36" height="268.3" id="mask9_244_47885_1_">
			<path class="st29" d="M463.42,231.71c0.02-38.86-9.74-77.1-28.38-111.21c-18.63-34.1-45.55-62.97-78.26-83.95
				C324.07,15.58,286.6,3.16,247.83,0.46s-77.59,4.38-112.9,20.61S68.96,62.16,45.77,93.34c-23.19,31.18-38.16,67.7-43.54,106.19
				c-5.38,38.49-0.99,77.71,12.76,114.06s36.42,68.65,65.93,93.94l-27.81,48.14v38.23c0,1.62,0.65,3.16,1.79,4.31
				c1.14,1.14,2.69,1.79,4.31,1.79c1.08,0,2.14-0.29,3.08-0.82l33.08-19.09l25.82-44.7c33.94,18.39,71.93,28.02,110.53,28.02
				c38.6,0,76.59-9.63,110.53-28.02l25.82,44.7l33.08,19.09c0.94,0.54,2,0.82,3.08,0.82c1.61-0.01,3.16-0.65,4.31-1.79
				c1.14-1.14,1.79-2.69,1.79-4.31v-38.23l-27.8-48.14c25.39-21.72,45.77-48.68,59.74-79.04
				C456.23,298.14,463.44,265.12,463.42,231.71z"/>
		</mask>
		<g class="st30">
			<path class="st26" d="M353.66,231.71c0,20.89-5.37,41.43-15.58,59.65c-10.22,18.22-24.94,33.51-42.77,44.4
				c-17.82,10.89-38.14,17.03-59.02,17.81c-20.87,0.79-41.6-3.8-60.19-13.33l55.61-96.34l7.04-12.2h-56.34L53.08,455.67v38.23
				c0,1.62,0.65,3.16,1.79,4.31s2.69,1.79,4.31,1.79c1.08,0,2.14-0.29,3.08-0.82l33.08-19.09l56.34-97.56
				c26.02,13.8,55.16,20.64,84.61,19.85c29.44-0.79,58.18-9.18,83.42-24.36c25.24-15.18,46.12-36.63,60.62-62.27
				c14.5-25.64,22.12-54.59,22.12-84.04H353.66z"/>
			<path class="st31" d="M182.41,231.71L53.08,455.67v3.05l131.1-227.01H182.41z M231.71,353.66c-19.34,0.02-38.41-4.58-55.61-13.42
				v3.05c18.59,9.53,39.32,14.11,60.19,13.33s41.2-6.92,59.02-17.81c17.82-10.89,32.55-26.18,42.77-44.4
				c10.22-18.22,15.58-38.76,15.58-59.65h48.69c0.03-1.01,0.09-2.01,0.09-3.05h-48.78c0,32.34-12.85,63.36-35.72,86.23
				C295.07,340.81,264.05,353.66,231.71,353.66z"/>
			<path class="st28" d="M238.75,231.71h-1.77L176.07,337.2v3.05L238.75,231.71z M402.35,231.71c-0.52,29.19-8.51,57.75-23.21,82.97
				c-14.7,25.22-35.63,46.24-60.77,61.07c-25.15,14.82-53.67,22.95-82.86,23.61c-29.18,0.65-58.05-6.18-83.83-19.87l-56.34,97.56
				l-33.08,19.08c-0.94,0.54-2,0.82-3.08,0.82c-1.62,0-3.16-0.65-4.31-1.79c-1.14-1.14-1.79-2.69-1.79-4.31v3.05
				c0,1.62,0.65,3.16,1.79,4.31s2.69,1.79,4.31,1.79c1.08,0,2.14-0.29,3.08-0.82l33.08-19.09l56.34-97.56
				c26.02,13.8,55.16,20.64,84.61,19.85c29.44-0.79,58.18-9.18,83.42-24.36c25.24-15.18,46.12-36.63,60.62-62.27
				c14.5-25.64,22.12-54.59,22.12-84.04H402.35z"/>
		</g>
		<defs>
			<filter id="Adobe_OpacityMaskFilter_10_" filterUnits="userSpaceOnUse" x="158.54" y="85.37" width="146.34" height="211.89">
				<feColorMatrix  type="matrix" values="1 0 0 0 0  0 1 0 0 0  0 0 1 0 0  0 0 0 1 0"/>
			</filter>
		</defs>
		<mask maskUnits="userSpaceOnUse" x="158.54" y="85.37" width="146.34" height="211.89" id="mask10_244_47885_1_">
			<path class="st32" d="M463.42,231.71c0.02-38.86-9.74-77.1-28.38-111.21c-18.63-34.1-45.55-62.97-78.26-83.95
				C324.07,15.58,286.6,3.16,247.83,0.46s-77.59,4.38-112.9,20.61S68.96,62.16,45.77,93.34c-23.19,31.18-38.16,67.7-43.54,106.19
				c-5.38,38.49-0.99,77.71,12.76,114.06s36.42,68.65,65.93,93.94l-27.81,48.14v38.23c0,1.62,0.65,3.16,1.79,4.31
				c1.14,1.14,2.69,1.79,4.31,1.79c1.08,0,2.14-0.29,3.08-0.82l33.08-19.09l25.82-44.7c33.94,18.39,71.93,28.02,110.53,28.02
				c38.6,0,76.59-9.63,110.53-28.02l25.82,44.7l33.08,19.09c0.94,0.54,2,0.82,3.08,0.82c1.61-0.01,3.16-0.65,4.31-1.79
				c1.14-1.14,1.79-2.69,1.79-4.31v-38.23l-27.8-48.14c25.39-21.72,45.77-48.68,59.74-79.04
				C456.23,298.14,463.44,265.12,463.42,231.71z"/>
		</mask>
		<g class="st33">
			<path class="st34" d="M286.59,121.95H256.1V85.37h-48.78v36.59h-30.49c-4.85,0.01-9.49,1.95-12.92,5.37
				c-3.43,3.43-5.36,8.07-5.37,12.92v91.46l60.24,60.18c1.7,1.7,3.71,3.05,5.93,3.97c2.22,0.92,4.6,1.4,7,1.4c2.4,0,4.78-0.47,7-1.4
				c2.22-0.92,4.23-2.27,5.93-3.97l60.24-60.18v-91.46c-0.01-4.85-1.95-9.49-5.37-12.92C296.08,123.9,291.43,121.96,286.59,121.95z
				 M231.71,225.61c-6.03,0-11.93-1.79-16.94-5.14c-5.01-3.35-8.92-8.11-11.23-13.68c-2.31-5.57-2.91-11.7-1.74-17.62
				c1.18-5.91,4.08-11.35,8.34-15.61c4.26-4.26,9.7-7.17,15.61-8.34c5.91-1.18,12.04-0.57,17.62,1.74
				c5.57,2.31,10.33,6.21,13.68,11.23c3.35,5.01,5.14,10.91,5.14,16.94c0,8.09-3.22,15.84-8.93,21.56S239.79,225.61,231.71,225.61z"
				/>
		</g>
		<defs>
			<filter id="Adobe_OpacityMaskFilter_11_" filterUnits="userSpaceOnUse" x="158.54" y="85.37" width="146.34" height="143.29">
				<feColorMatrix  type="matrix" values="1 0 0 0 0  0 1 0 0 0  0 0 1 0 0  0 0 0 1 0"/>
			</filter>
		</defs>
		<mask maskUnits="userSpaceOnUse" x="158.54" y="85.37" width="146.34" height="143.29" id="mask11_244_47885_1_">
			<path class="st35" d="M463.42,231.71c0.02-38.86-9.74-77.1-28.38-111.21c-18.63-34.1-45.55-62.97-78.26-83.95
				C324.07,15.58,286.6,3.16,247.83,0.46s-77.59,4.38-112.9,20.61S68.96,62.16,45.77,93.34c-23.19,31.18-38.16,67.7-43.54,106.19
				c-5.38,38.49-0.99,77.71,12.76,114.06s36.42,68.65,65.93,93.94l-27.81,48.14v38.23c0,1.62,0.65,3.16,1.79,4.31
				c1.14,1.14,2.69,1.79,4.31,1.79c1.08,0,2.14-0.29,3.08-0.82l33.08-19.09l25.82-44.7c33.94,18.39,71.93,28.02,110.53,28.02
				c38.6,0,76.59-9.63,110.53-28.02l25.82,44.7l33.08,19.09c0.94,0.54,2,0.82,3.08,0.82c1.61-0.01,3.16-0.65,4.31-1.79
				c1.14-1.14,1.79-2.69,1.79-4.31v-38.23l-27.8-48.14c25.39-21.72,45.77-48.68,59.74-79.04
				C456.23,298.14,463.44,265.12,463.42,231.71z"/>
		</mask>
		<g class="st36">
			<path class="st37" d="M286.59,121.95H256.1V125h30.49c4.85,0.01,9.49,1.95,12.92,5.37c3.43,3.43,5.36,8.07,5.37,12.92v-3.05
				c-0.01-4.85-1.95-9.49-5.37-12.92C296.08,123.9,291.43,121.96,286.59,121.95z M256.1,85.37h-48.78v3.05h48.78V85.37z
				 M207.32,121.95h-30.49c-4.85,0.01-9.49,1.95-12.92,5.37c-3.43,3.43-5.36,8.07-5.37,12.92v3.05c0.01-4.85,1.95-9.49,5.37-12.92
				c3.43-3.43,8.07-5.36,12.92-5.37h30.49V121.95z M231.71,225.61c-8.09,0-15.84-3.22-21.56-8.93s-8.93-13.47-8.93-21.56v3.05
				c0,8.09,3.21,15.84,8.93,21.56c5.72,5.72,13.47,8.93,21.56,8.93c8.09,0,15.84-3.21,21.56-8.93c5.72-5.72,8.93-13.47,8.93-21.56
				v-3.05c0,8.09-3.22,15.84-8.93,21.56S239.79,225.61,231.71,225.61z"/>
		</g>
		<defs>
			<filter id="Adobe_OpacityMaskFilter_12_" filterUnits="userSpaceOnUse" x="158.54" y="161.59" width="146.34" height="135.67">
				<feColorMatrix  type="matrix" values="1 0 0 0 0  0 1 0 0 0  0 0 1 0 0  0 0 0 1 0"/>
			</filter>
		</defs>
		<mask maskUnits="userSpaceOnUse" x="158.54" y="161.59" width="146.34" height="135.67" id="mask12_244_47885_1_">
			<path class="st38" d="M463.42,231.71c0.02-38.86-9.74-77.1-28.38-111.21c-18.63-34.1-45.55-62.97-78.26-83.95
				C324.07,15.58,286.6,3.16,247.83,0.46s-77.59,4.38-112.9,20.61S68.96,62.16,45.77,93.34c-23.19,31.18-38.16,67.7-43.54,106.19
				c-5.38,38.49-0.99,77.71,12.76,114.06s36.42,68.65,65.93,93.94l-27.81,48.14v38.23c0,1.62,0.65,3.16,1.79,4.31
				c1.14,1.14,2.69,1.79,4.31,1.79c1.08,0,2.14-0.29,3.08-0.82l33.08-19.09l25.82-44.7c33.94,18.39,71.93,28.02,110.53,28.02
				c38.6,0,76.59-9.63,110.53-28.02l25.82,44.7l33.08,19.09c0.94,0.54,2,0.82,3.08,0.82c1.61-0.01,3.16-0.65,4.31-1.79
				c1.14-1.14,1.79-2.69,1.79-4.31v-38.23l-27.8-48.14c25.39-21.72,45.77-48.68,59.74-79.04
				C456.23,298.14,463.44,265.12,463.42,231.71z"/>
		</mask>
		<g class="st39">
			<path class="st28" d="M231.71,164.63c8.08,0,15.84,3.22,21.55,8.93s8.93,13.47,8.93,21.55v-3.05c0-8.09-3.21-15.84-8.93-21.56
				c-5.72-5.72-13.47-8.93-21.56-8.93c-8.09,0-15.84,3.21-21.56,8.93c-5.72,5.72-8.93,13.47-8.93,21.56v3.05
				c0-8.08,3.22-15.84,8.93-21.55S223.62,164.64,231.71,164.63z M244.64,288.84c-1.7,1.7-3.71,3.05-5.93,3.97
				c-2.22,0.92-4.6,1.39-7,1.39s-4.78-0.47-7-1.39c-2.22-0.92-4.23-2.27-5.93-3.97l-60.24-60.18v3.05l60.24,60.18
				c1.7,1.7,3.71,3.05,5.93,3.97c2.22,0.92,4.6,1.4,7,1.4s4.78-0.47,7-1.4c2.22-0.92,4.23-2.27,5.93-3.97l60.24-60.18v-3.05
				L244.64,288.84z"/>
		</g>
		
			<radialGradient id="SVGID_4_" cx="-19.2025" cy="499.7265" r="1" gradientTransform="matrix(549.157 0 0 -592.509 10613.3691 296160.125)" gradientUnits="userSpaceOnUse">
			<stop  offset="0" style="stop-color:#FFFFFF;stop-opacity:0.1"/>
			<stop  offset="1" style="stop-color:#FFFFFF;stop-opacity:0"/>
		</radialGradient>
		<path class="st40" d="M463.42,231.71c0.02-38.86-9.74-77.1-28.38-111.21c-18.63-34.1-45.55-62.97-78.26-83.95
			C324.07,15.58,286.6,3.16,247.83,0.46s-77.59,4.38-112.9,20.61S68.96,62.16,45.77,93.34c-23.19,31.18-38.16,67.7-43.54,106.19
			c-5.38,38.49-0.99,77.71,12.76,114.06s36.42,68.65,65.93,93.94l-27.81,48.14v38.23c0,1.62,0.65,3.16,1.79,4.31
			c1.14,1.14,2.69,1.79,4.31,1.79c1.08,0,2.14-0.29,3.08-0.82l33.08-19.09l25.82-44.7c33.94,18.39,71.93,28.02,110.53,28.02
			c38.6,0,76.59-9.63,110.53-28.02l25.82,44.7l33.08,19.09c0.94,0.54,2,0.82,3.08,0.82c1.61-0.01,3.16-0.65,4.31-1.79
			c1.14-1.14,1.79-2.69,1.79-4.31v-38.23l-27.8-48.14c25.39-21.72,45.77-48.68,59.74-79.04
			C456.23,298.14,463.44,265.12,463.42,231.71z"/>
	</g>
</g>
</svg>
