<svg xmlns="http://www.w3.org/2000/svg" xmlns:xlink="http://www.w3.org/1999/xlink" viewBox="0,0,256,256" width="32px" height="32px"><g fill="#ff0000" fill-rule="nonzero" stroke="none" stroke-width="1" stroke-linecap="butt" stroke-linejoin="miter" stroke-miterlimit="10" stroke-dasharray="" stroke-dashoffset="0" font-family="none" font-weight="none" font-size="none" text-anchor="none" style="mix-blend-mode: normal"><g transform="scale(8,8)"><path d="M10.03125,9.57422c-0.251,0 -0.50839,0.01487 -0.77539,0.04688l0.15234,0.47852c0.235,-0.025 0.46813,-0.0332 0.70312,-0.0332h0.08203zM13.11719,10.05078l-0.03125,0.5332c0.267,0.09 0.5252,0.18797 0.7832,0.29297l0.0332,-0.54297c-0.073,-0.04 -0.27616,-0.1372 -0.78516,-0.2832zM6.4668,10.35742c-0.202,0.105 -0.41286,0.21766 -0.63086,0.34766l0.37109,0.56641c0.21,-0.13 0.41305,-0.25047 0.62305,-0.35547zM10.13477,10.38281c-0.22667,0.00167 -0.45617,0.01398 -0.68555,0.03711c-2.36,0.21 -5.25922,2.35969 -6.94922,5.17969c-1.7,2.83 -1.92969,5.23047 -1.92969,5.23047h6.37891c0,0 -1.21969,-5.57008 2.82031,-7.83008c0.84,-0.41 3.45141,-1.89078 7.69141,0.94922l0.31836,-0.28906c-1.2,-1.03125 -4.24452,-3.30243 -7.64453,-3.27734zM13.10156,12.58984l-0.03125,0.50781c0.267,0.008 0.53183,0.04066 0.79883,0.09766l0.0332,-0.50195c-0.274,-0.056 -0.54178,-0.08751 -0.80078,-0.10351zM11.21094,12.7832c-0.275,0.08 -0.50894,0.17077 -0.71094,0.25977l0.18555,0.55664c0.234,-0.113 0.46913,-0.2102 0.70313,-0.2832zM3.20117,12.81641c-0.21,0.202 -0.41166,0.40347 -0.59766,0.60547l0.62109,0.5332c0.17,-0.218 0.35678,-0.43667 0.55078,-0.63867zM8.98828,14.01172c-0.186,0.171 -0.35695,0.35501 -0.50195,0.54101l0.38867,0.58203c0.137,-0.202 0.29856,-0.38822 0.47656,-0.57422zM10.15039,15.16406v5.5625h1.35351v-1.53711l0.17188,0.17773l1.26953,1.35937h2.05469l-1.7832,-1.79883l0.21289,-0.01953c0.053,-0.005 1.32422,-0.13966 1.32422,-1.84766c0,-1.711 -1.55823,-1.89048 -1.61523,-1.89649zM17.10938,15.20313c-1.05,0 -1.4043,0.9653 -1.4043,1.4043v4.11914h1.37695v-1.00977h1.67969v1.00977h1.32617v-4.11914c0,-1.145 -1.03834,-1.4043 -1.40234,-1.4043zM21.00781,15.20313v5.52148h1.44141v-5.52148zM23.31836,15.20313v5.52344h3.64258v-1.2793h-2.20703v-4.24414zM29.03125,15.20313c-0.592,0 -1.41211,0.49573 -1.41211,1.42773v0.50977c0,0.958 0.84311,1.4043 1.41211,1.4043l0.7168,0.00195c0.113,-0.003 0.62891,-0.00195 0.62891,-0.00195v0.91016l-2.67773,0.00781v1.26172h2.54492c0.526,0 1.37234,-0.38134 1.40234,-1.40234v-0.56641c0,-0.878 -0.71334,-1.40234 -1.40234,-1.40234h-1.41797v-0.87891h2.61133v-1.27148zM7.55859,16.26563c-0.106,0.3 -0.17914,0.59962 -0.24414,0.89063l0.65625,0.51758c0.032,-0.315 0.08892,-0.63127 0.16992,-0.94727zM17.66797,16.36914h0.53906c0.422,0 0.54287,0.26806 0.54688,0.41406v1.5h-1.67969v-1.5c0,-0.004 0.00775,-0.41406 0.59375,-0.41406zM11.50586,16.4082l1.37891,0.00586c0.016,0.007 0.41211,0.162 0.41211,0.75c0,0.587 -0.40108,0.74967 -0.45508,0.76367h-1.33594zM0.4043,16.5918c-0.153,0.347 -0.3233,0.75075 -0.4043,0.96875l0.92969,0.33984c0.105,-0.275 0.2743,-0.6717 0.4043,-0.9707zM7.19336,19.20898c0.016,0.428 0.05766,0.77558 0.09766,1.01758l0.9707,0.34766c-0.073,-0.315 -0.14631,-0.67078 -0.19531,-1.05078z"></path></g></g></svg>